<svg width="50" height="50" viewBox="0 0 50 50" fill="none" xmlns="http://www.w3.org/2000/svg">
<path fill-rule="evenodd" clip-rule="evenodd" d="M0 2.5C0 1.83696 0.329241 1.20107 0.915292 0.732233C1.50134 0.263392 2.2962 0 3.125 0H46.875C47.7038 0 48.4987 0.263392 49.0847 0.732233C49.6708 1.20107 50 1.83696 50 2.5V42.5C50 44.4891 49.0123 46.3968 47.2541 47.8033C45.496 49.2098 43.1114 50 40.625 50H9.375C6.8886 50 4.50403 49.2098 2.74587 47.8033C0.987721 46.3968 0 44.4891 0 42.5V2.5ZM43.75 5V15H6.25V5H43.75ZM12.5 27.5C12.5 26.837 12.8292 26.2011 13.4153 25.7322C14.0013 25.2634 14.7962 25 15.625 25H18.75C19.5788 25 20.3737 25.2634 20.9597 25.7322C21.5458 26.2011 21.875 26.837 21.875 27.5C21.875 28.163 21.5458 28.7989 20.9597 29.2678C20.3737 29.7366 19.5788 30 18.75 30H15.625C14.7962 30 14.0013 29.7366 13.4153 29.2678C12.8292 28.7989 12.5 28.163 12.5 27.5ZM28.125 27.5C28.125 26.837 28.4542 26.2011 29.0403 25.7322C29.6263 25.2634 30.4212 25 31.25 25H34.375C35.2038 25 35.9987 25.2634 36.5847 25.7322C37.1708 26.2011 37.5 26.837 37.5 27.5C37.5 28.163 37.1708 28.7989 36.5847 29.2678C35.9987 29.7366 35.2038 30 34.375 30H31.25C30.4212 30 29.6263 29.7366 29.0403 29.2678C28.4542 28.7989 28.125 28.163 28.125 27.5ZM15.625 35C14.7962 35 14.0013 35.2634 13.4153 35.7322C12.8292 36.2011 12.5 36.837 12.5 37.5C12.5 38.163 12.8292 38.7989 13.4153 39.2678C14.0013 39.7366 14.7962 40 15.625 40H18.75C19.5788 40 20.3737 39.7366 20.9597 39.2678C21.5458 38.7989 21.875 38.163 21.875 37.5C21.875 36.837 21.5458 36.2011 20.9597 35.7322C20.3737 35.2634 19.5788 35 18.75 35H15.625ZM28.125 37.5C28.125 36.837 28.4542 36.2011 29.0403 35.7322C29.6263 35.2634 30.4212 35 31.25 35H34.375C35.2038 35 35.9987 35.2634 36.5847 35.7322C37.1708 36.2011 37.5 36.837 37.5 37.5C37.5 38.163 37.1708 38.7989 36.5847 39.2678C35.9987 39.7366 35.2038 40 34.375 40H31.25C30.4212 40 29.6263 39.7366 29.0403 39.2678C28.4542 38.7989 28.125 38.163 28.125 37.5Z" fill="black"/>
</svg>
