<svg width="59" height="55" viewBox="0 0 59 55" fill="none" xmlns="http://www.w3.org/2000/svg">
<path d="M29.5 0C34.3899 0 39.0796 1.44866 42.5373 4.02728C45.995 6.60591 47.9375 10.1033 47.9375 13.75V22C50.8715 22 53.6852 22.8692 55.7599 24.4164C57.8345 25.9635 59 28.062 59 30.25V46.75C59 48.938 57.8345 51.0365 55.7599 52.5836C53.6852 54.1308 50.8715 55 47.9375 55H11.0625C8.12854 55 5.31475 54.1308 3.24013 52.5836C1.16551 51.0365 0 48.938 0 46.75V30.25C0 28.062 1.16551 25.9635 3.24013 24.4164C5.31475 22.8692 8.12854 22 11.0625 22V13.75C11.0625 10.1033 13.005 6.60591 16.4627 4.02728C19.9204 1.44866 24.6101 0 29.5 0ZM29.5 33C27.6394 32.9996 25.8473 33.5236 24.483 34.4671C23.1187 35.4106 22.283 36.7038 22.1434 38.0875L22.125 38.5C22.125 39.5878 22.5575 40.6512 23.3679 41.5556C24.1783 42.4601 25.3301 43.1651 26.6777 43.5813C28.0253 43.9976 29.5082 44.1065 30.9388 43.8943C32.3694 43.6821 33.6835 43.1583 34.7149 42.3891C35.7463 41.6199 36.4487 40.6399 36.7333 39.573C37.0179 38.5061 36.8718 37.4002 36.3136 36.3952C35.7554 35.3902 34.8101 34.5313 33.5973 33.9269C32.3845 33.3226 30.9586 33 29.5 33ZM29.5 5.5C26.566 5.5 23.7523 6.36919 21.6776 7.91637C19.603 9.46354 18.4375 11.562 18.4375 13.75V22H40.5625V13.75C40.5625 11.562 39.397 9.46354 37.3224 7.91637C35.2477 6.36919 32.434 5.5 29.5 5.5Z" fill="black"/>
</svg>
