<svg width="53" height="60" viewBox="0 0 53 60" fill="none" xmlns="http://www.w3.org/2000/svg">
<path d="M6.625 19.9167H36.4375V14.2976C36.4375 11.9563 35.4713 9.96627 33.5391 8.32738C31.6068 6.68849 29.2604 5.86905 26.5 5.86905C23.7396 5.86905 21.3932 6.68849 19.4609 8.32738C17.5286 9.96627 16.5625 11.9563 16.5625 14.2976H9.9375C9.9375 10.4111 11.5529 7.09868 14.7837 4.36034C18.0145 1.62199 21.9199 0.251875 26.5 0.250002C31.0801 0.248129 34.9866 1.61824 38.2196 4.36034C41.4526 7.10243 43.0669 10.4149 43.0625 14.2976V19.9167H46.375C48.1969 19.9167 49.7571 20.4673 51.0556 21.5687C52.3541 22.67 53.0022 23.9923 53 25.5357V53.6309C53 55.1762 52.3518 56.4995 51.0556 57.6008C49.7593 58.7021 48.1991 59.2519 46.375 59.25H6.625C4.80312 59.25 3.24404 58.7003 1.94775 57.6008C0.651458 56.5013 0.00220833 55.1781 0 53.6309V25.5357C0 23.9905 0.649249 22.6681 1.94775 21.5687C3.24625 20.4692 4.80533 19.9185 6.625 19.9167ZM26.5 45.2024C28.3219 45.2024 29.8821 44.6526 31.1806 43.5532C32.4791 42.4537 33.1272 41.1304 33.125 39.5833C33.1228 38.0362 32.4746 36.7139 31.1806 35.6163C29.8865 34.5187 28.3263 33.968 26.5 33.9643C24.6737 33.9605 23.1146 34.5112 21.8227 35.6163C20.5309 36.7214 19.8816 38.0437 19.875 39.5833C19.8684 41.123 20.5176 42.4462 21.8227 43.5532C23.1279 44.6601 24.687 45.2099 26.5 45.2024Z" fill="black"/>
</svg>
